<svg display="block" role="presentation" viewBox="0 0 117 32" xmlns="http://www.w3.org/2000/svg"><path d="M 86.615 0.137 C 87.12 -0.063 87.187 -0.059 88.681 0.25 C 92.503 1.042 94.573 2.163 94.574 3.443 C 94.574 3.944 94.364 4.213 93.721 4.534 C 93.057 4.867 91.785 5.142 89.93 5.353 C 88.16 5.554 73.639 5.641 70.43 5.469 C 65.845 5.223 59.208 4.797 53.159 4.36 C 38.338 3.289 29.149 3.038 23.753 3.559 C 18.397 4.076 12.942 5.245 8.656 6.795 C 7.432 7.237 7.284 7.241 5.492 6.876 C 2.738 6.317 1.092 5.695 0.421 4.961 C -0.531 3.919 0.136 2.92 2.377 2.033 C 4.548 1.175 7.949 0.632 13.167 0.31 C 15.76 0.15 25.245 0.226 29.449 0.441 C 30.776 0.508 33.117 0.619 34.649 0.687 C 36.181 0.755 39.886 0.949 42.882 1.117 C 45.878 1.286 49.862 1.505 51.735 1.604 C 53.607 1.702 56.337 1.849 57.801 1.929 C 59.279 2.01 63.932 2.08 68.263 2.085 C 74.927 2.094 76.37 2.064 78.168 1.877 C 82.109 1.469 84.494 0.977 86.615 0.137 Z" fill="rgb(7, 16, 12)" height="7.139086257972227px" id="o75xx460K" transform="translate(10.166 24.861)" width="94.57388890492905px"/><path d="M 6.575 0.145 C 7.162 -0.165 9.312 0.06 9.654 0.468 C 9.752 0.584 9.722 0.837 9.546 1.402 C 8.949 3.312 8.689 7.024 9.025 8.831 C 9.34 10.522 10.147 11.832 11.078 12.164 C 11.124 12.181 11.168 12.199 11.21 12.217 C 11.245 12.235 11.281 12.252 11.317 12.268 C 11.43 12.324 11.506 12.376 11.506 12.407 C 11.506 12.602 10.539 13.266 9.923 13.494 C 9.019 13.829 8.07 13.815 7.531 13.458 C 6.947 13.072 6.262 11.679 5.981 10.306 L 5.759 9.217 L 5.293 10.101 C 5.037 10.587 4.596 11.19 4.313 11.443 C 3.883 11.826 3.708 11.902 3.255 11.902 C 1.645 11.901 0.521 10.498 0.12 7.987 C -0.119 6.49 0.02 2.391 0.351 1.169 C 0.503 0.607 0.983 0.367 2.082 0.304 C 2.625 0.273 3.313 0.284 3.61 0.328 L 4.151 0.408 L 3.916 1.475 C 3.621 2.813 3.555 6.166 3.808 6.991 C 3.971 7.525 4.437 8.109 4.7 8.109 C 4.777 8.109 4.993 7.957 5.181 7.772 C 5.52 7.437 5.522 7.419 5.605 5.294 C 5.689 3.11 5.951 0.951 6.183 0.523 C 6.254 0.392 6.43 0.221 6.575 0.145 Z" fill="rgb(7, 16, 12)" height="13.735661335410514px" id="fAznCgPAB" transform="translate(51.509 10.834)" width="11.505819727793273px"/><path d="M 35.464 0.327 C 36.469 1.085 37.187 2.554 37.222 3.846 C 37.219 4.075 37.205 4.314 37.173 4.554 C 36.908 6.151 35.713 7.169 33.724 7.48 C 32.512 7.67 28.63 7.43 24.924 6.935 C 18.694 6.102 14.878 5.675 14.765 5.799 C 14.655 5.925 14.463 10.4 14.465 12.807 C 14.468 15.81 14.639 17.73 15.011 18.921 C 15.116 19.257 15.204 19.57 15.205 19.615 C 15.207 19.763 13.806 20.342 12.863 20.583 C 12.358 20.712 11.857 20.893 11.749 20.986 C 11.641 21.079 11.243 21.327 10.863 21.537 C 9.707 22.175 8.638 22.236 7.919 21.706 C 7.274 21.23 6.848 19.945 6.571 17.636 L 6.475 16.841 L 5.961 17.759 C 4.933 19.594 3.985 20.348 2.694 20.36 C 2.062 20.366 1.869 20.312 1.429 20.007 C -0.906 18.385 -0.261 11.839 2.501 9.131 C 3.411 8.238 4.004 7.939 4.992 7.875 C 5.95 7.813 6.451 8.122 6.964 9.088 L 7.329 9.773 L 8.227 9.759 C 8.816 9.749 9.18 9.8 9.287 9.904 C 9.412 10.029 9.45 10.853 9.454 13.574 C 9.46 17.803 9.584 18.498 10.538 19.646 L 10.835 20.005 L 10.9 18.7 C 10.918 18.6 10.932 18.483 10.935 18.335 C 10.962 17.793 10.986 17.262 11.009 16.739 C 11.064 15.837 11.131 14.802 11.191 13.966 C 11.291 12.586 11.407 10.205 11.451 8.674 L 11.53 5.891 L 11.039 5.891 C 10.408 5.891 8.603 6.338 7.962 6.653 C 7.69 6.787 7.291 7.028 7.075 7.188 L 6.682 7.479 L 6.343 7.082 C 5.781 6.425 5.527 5.741 5.682 5.302 C 5.962 4.508 6.992 4.18 9.483 4.089 C 10.523 4.051 11.395 3.987 11.421 3.946 C 11.508 3.807 11.153 1.792 10.963 1.349 L 10.774 0.905 L 11.225 0.773 C 12.045 0.534 13.186 0.402 13.614 0.497 C 14.315 0.653 14.599 0.87 14.855 1.442 C 15.066 1.914 15.087 2.139 15.012 3.083 L 14.926 4.178 L 15.344 4.181 C 15.574 4.182 16.766 4.263 17.992 4.36 C 25.965 4.995 31.218 3.84 34.249 0.787 L 35.031 0 Z M 5.656 10.907 C 5.491 10.908 4.722 12.144 4.428 12.88 C 3.796 14.466 3.456 17.11 3.837 17.487 C 4.249 17.894 5.363 16.606 5.794 15.226 C 6.183 13.982 6.085 10.907 5.656 10.907 Z" fill="rgb(7, 16, 12)" height="22.06365966198395px" id="RPGcggr2c" transform="translate(79.134 2.285)" width="37.222249055035505px"/><path d="M 11.481 0.193 C 13.126 -0.177 14.136 -0.016 14.576 0.688 C 14.878 1.171 14.924 1.821 14.777 3.534 C 14.739 3.942 14.701 4.349 14.669 4.758 L 14.67 4.757 L 14.668 4.784 L 15.021 4.703 C 15.214 4.659 15.699 4.516 16.099 4.386 C 16.965 4.105 17.06 4.156 17.589 5.19 C 18.044 6.079 18.01 6.895 17.5 7.27 C 17.206 7.486 16.938 7.533 15.811 7.568 L 14.504 7.607 C 14.486 7.607 14.467 7.608 14.449 7.608 C 14.445 7.69 14.443 7.773 14.439 7.855 L 14.387 8.271 C 14.341 8.635 14.302 10.378 14.301 12.145 C 14.299 15.426 14.453 17.138 14.88 18.531 C 14.982 18.863 15.024 19.177 14.972 19.227 C 14.809 19.385 13.042 20.044 12.53 20.137 C 12.261 20.186 11.788 20.404 11.479 20.621 C 11.169 20.838 10.663 21.124 10.355 21.257 C 9.121 21.788 8.303 21.694 7.626 20.944 C 7.155 20.421 6.752 19.213 6.594 17.975 C 6.569 17.737 6.549 17.499 6.53 17.26 C 6.525 17.145 6.522 17.03 6.522 16.917 C 6.521 16.631 6.465 16.397 6.397 16.397 C 6.329 16.397 6.273 16.451 6.273 16.518 C 6.272 16.797 5.175 18.433 4.618 18.984 C 3.05 20.535 0.984 20.045 0.243 17.948 C -0.108 16.954 -0.072 13.993 0.307 12.604 C 1.103 9.687 2.832 7.642 4.715 7.387 C 4.821 7.373 4.925 7.368 5.027 7.368 C 5.249 7.385 5.464 7.416 5.657 7.47 C 6.273 7.673 6.775 8.168 7.032 8.871 L 7.194 9.315 L 7.941 9.242 C 8.445 9.194 8.787 9.222 8.996 9.33 L 9.306 9.491 L 9.369 13.219 C 9.44 17.393 9.551 18.078 10.286 18.919 L 10.678 19.367 L 10.695 19.067 C 10.697 19.068 10.699 19.07 10.701 19.072 C 10.701 19.058 10.699 19.044 10.698 19.031 L 11.017 13.875 C 11.203 10.855 11.354 8.205 11.353 7.986 L 11.349 7.588 L 10.285 7.588 C 9.06 7.588 8.619 7.405 8.315 6.772 C 8.113 6.352 8.174 5.762 8.422 5.742 C 8.5 5.735 9.176 5.666 9.925 5.588 L 11.287 5.447 L 11.325 4.53 C 11.372 3.383 11.159 1.744 10.861 0.971 L 10.635 0.382 Z M 5.651 10.461 C 5.5 10.37 4.969 11.053 4.616 11.789 C 3.867 13.354 3.355 16.027 3.657 16.794 C 3.809 17.178 3.936 17.207 4.338 16.947 C 5.173 16.406 5.886 14.79 5.99 13.202 C 6.058 12.175 5.861 10.59 5.651 10.461 Z" fill="rgb(7, 16, 12)" height="21.592965722994734px" id="TIxdydYF2" transform="translate(35.571 2.668)" width="17.907975463423426px"/><path d="M 7.741 0.018 C 8.594 0.063 8.857 0.128 9.268 0.396 C 10.399 1.136 10.895 2.097 10.895 3.551 C 10.895 6.286 8.774 8.611 5.646 9.303 C 5.109 9.421 4.63 9.582 4.581 9.66 C 4.497 9.795 4.312 12.002 4.379 12.069 C 4.397 12.087 4.704 11.83 5.061 11.498 C 6.934 9.761 9.203 9.669 10.02 11.298 C 10.433 12.122 10.48 13.286 10.213 16.082 C 9.986 18.456 10.014 19.986 10.298 20.848 C 10.523 21.53 11.209 22.191 11.969 22.456 L 12.608 22.679 L 12.216 22.97 C 12 23.129 11.506 23.421 11.116 23.617 C 10.534 23.911 10.258 23.974 9.568 23.97 C 8.503 23.963 7.915 23.672 7.428 22.913 C 6.858 22.026 6.793 21.417 6.834 17.408 C 6.876 13.32 6.847 13.152 6.013 12.759 C 5.517 12.525 5.117 12.601 4.664 13.015 C 4.494 13.172 4.412 13.254 4.372 13.521 C 4.32 13.631 4.354 13.771 4.344 13.891 C 4.335 14.13 4.334 14.452 4.334 14.902 C 4.334 17.53 4.697 20.234 5.203 21.374 L 5.434 21.893 L 5.101 21.98 C 4.917 22.028 4.182 22.07 3.467 22.073 C 1.119 22.083 0.873 21.741 0.87 18.469 C 0.867 15.657 1.232 11.045 1.561 9.718 C 1.613 9.508 1.53 9.445 1.03 9.312 C 0.345 9.131 0 8.868 0 8.523 C 0 8.302 0.057 8.287 0.65 8.361 C 1.008 8.406 1.402 8.454 1.526 8.47 C 1.715 8.492 1.809 8.277 2.101 7.152 C 3.071 3.408 4.424 1.084 6.118 0.255 C 6.636 0.001 6.841 -0.028 7.741 0.018 Z M 6.342 3.075 C 6.109 3.042 6.01 3.148 5.751 3.706 C 5.429 4.401 4.91 6.47 4.76 7.655 L 4.674 8.335 L 5.159 8.09 C 5.925 7.704 6.642 6.849 6.881 6.038 C 7.249 4.787 6.953 3.161 6.342 3.075 Z" fill="rgb(7, 16, 12)" height="23.969782821894718px" id="Uh2eC6l2d" transform="translate(24.757 0.229)" width="12.608399999999996px"/><path d="M 17.407 0.696 C 19.435 -0.213 22 -0.233 23.753 0.644 C 26.163 1.851 26.336 4.51 24.144 6.65 C 22.476 8.278 19.873 9.353 16.746 9.703 L 15.976 9.789 L 15.598 10.757 C 14.32 14.031 14.337 16.728 15.643 18.016 C 16.497 18.859 17.843 19.064 19.004 18.53 C 20.341 17.915 21.773 16.24 22.238 14.748 L 22.455 14.054 L 22.956 14.125 C 24.847 14.395 25.621 15.782 25.064 17.896 C 24.455 20.206 22.458 22.293 20.195 22.984 C 18.71 23.437 16.558 23.212 14.914 22.431 C 14.414 22.194 13.848 21.757 13.178 21.092 C 12.008 19.93 11.431 18.886 10.928 17.03 C 10.634 15.942 10.601 15.61 10.602 13.681 C 10.602 12.25 10.665 11.246 10.789 10.654 C 10.892 10.167 10.947 9.74 10.913 9.706 C 10.877 9.672 10.677 9.644 10.467 9.643 C 10.257 9.643 9.529 9.561 8.848 9.462 C 4.653 8.849 1.599 7.624 0.464 6.099 C -0.034 5.43 -0.142 4.525 0.192 3.818 C 0.533 3.096 1.715 2.025 2.994 1.28 C 4.201 0.576 4.323 0.573 4.327 1.245 C 4.329 1.747 4.676 3 4.973 3.58 C 5.452 4.516 6.223 5.486 6.978 6.103 C 8.134 7.049 11.117 8.397 11.381 8.093 C 11.43 8.036 11.57 7.716 11.693 7.381 C 12.791 4.388 15.041 1.756 17.407 0.696 Z M 20.768 6.042 C 19.939 5.468 18.383 6.289 17.101 7.978 C 16.954 8.172 16.834 8.378 16.833 8.436 C 16.833 8.764 19.242 8.259 20.129 7.745 C 21.047 7.213 21.338 6.437 20.768 6.042 Z" fill="rgb(7, 16, 12)" height="23.21616022601845px" id="i0RpayeOU" transform="translate(0 0)" width="25.680837915938824px"/><path d="M 1.816 1.953 C 3.385 0.24 5.257 -0.381 7.012 0.229 C 7.5 0.398 7.866 0.447 8.251 0.395 C 8.708 0.333 8.847 0.365 9.089 0.59 C 9.897 1.339 10.02 3.797 9.324 5.268 C 8.586 6.825 7.334 7.605 5.571 7.607 C 5.06 7.608 4.4 7.542 4.104 7.461 C 3.807 7.379 3.548 7.33 3.527 7.352 C 3.522 7.358 3.521 7.386 3.522 7.431 C 3.52 7.43 3.517 7.429 3.515 7.429 C 3.519 7.557 3.54 7.68 3.564 7.8 C 3.578 7.898 3.59 8.008 3.608 8.121 C 3.755 9.035 4.143 9.741 4.704 10.118 C 5.552 10.686 6.693 10.248 7.379 9.092 C 7.598 8.724 7.768 8.561 7.887 8.606 C 7.986 8.644 8.171 8.675 8.296 8.675 C 8.422 8.675 8.724 8.86 8.967 9.087 C 9.334 9.429 9.409 9.584 9.409 10 C 9.409 10.924 8.253 11.827 6.624 12.177 C 4.557 12.62 2.505 12.07 1.335 10.759 C 0.377 9.685 -0.002 8.539 0 6.722 C 0.001 6.008 0.078 5.361 0.235 4.759 C 0.398 4.197 0.628 3.656 0.915 3.148 C 1.162 2.738 1.46 2.342 1.816 1.953 Z M 6.525 3.758 C 6.432 3.071 6.303 2.981 5.77 3.231 C 4.843 3.666 3.914 4.924 3.654 6.093 L 3.562 6.51 L 4.187 6.437 C 5.809 6.246 6.721 5.202 6.525 3.758 Z" fill="rgb(7, 16, 12)" height="12.327983389492935px" id="Do6HLQ0pz" transform="translate(94.959 10.513)" width="9.777972254083764px"/><path d="M 14.776 0.317 C 15.598 -0.098 16.962 -0.107 17.784 0.299 C 19.299 1.046 19.984 2.841 19.5 4.794 C 18.897 7.224 16.543 9.08 13.555 9.482 C 13.353 9.51 13.292 9.641 13.227 10.187 C 13.182 10.557 13.141 11.205 13.134 11.629 L 13.121 12.399 L 13.776 11.736 C 14.549 10.954 15.232 10.583 16.209 10.413 C 17.963 10.108 19.031 11.044 19.439 13.244 C 19.739 14.866 19.302 17.323 18.382 19.198 C 17.73 20.527 16.891 21.443 15.941 21.866 C 15.323 22.141 15.167 22.156 12.992 22.136 C 11.033 22.118 10.647 22.083 10.363 21.899 C 9.82 21.547 9.621 21.01 9.559 19.729 C 9.464 17.771 9.868 11.895 10.231 9.954 L 10.308 9.539 L 9.781 9.832 C 9.402 10.043 8.953 10.419 8.545 10.845 C 8.379 11.006 8.227 11.181 8.086 11.371 C 7.88 11.628 7.701 11.885 7.574 12.122 C 6.752 13.66 6.31 15.681 6.282 18.034 C 6.265 19.505 6.407 20.156 7.005 21.336 L 7.292 21.902 L 6.906 21.979 C 6.694 22.021 6.07 22.082 5.519 22.115 C 3.318 22.247 2.589 21.615 2.664 19.141 C 2.668 19.038 2.671 18.935 2.675 18.833 C 2.694 18.473 2.727 18.078 2.774 17.644 C 3.227 13.429 3.259 12.909 3.12 12.082 C 2.865 10.563 2.223 10.011 0.793 10.084 C 0.065 10.121 -0.003 10.104 0 9.88 C 0.006 9.425 0.457 8.645 0.961 8.219 C 2.692 6.755 5.193 7.261 6.079 9.255 C 6.297 9.746 6.359 10.121 6.365 11.002 C 6.37 11.617 6.39 12.105 6.409 12.088 C 6.429 12.069 6.583 11.542 6.752 10.918 C 7.338 8.755 8.422 6.959 9.463 6.426 C 9.671 6.319 10.113 6.222 10.446 6.21 L 11.053 6.188 L 11.065 6.152 L 11.069 6.153 C 11.079 6.12 11.09 6.086 11.1 6.053 L 11.392 5.201 C 12.261 2.67 13.414 1.007 14.776 0.317 Z M 14.861 13.122 C 14.662 13.122 13.972 13.764 13.69 14.213 C 13.029 15.263 12.985 15.534 13.115 17.747 C 13.181 18.87 13.272 19.968 13.317 20.187 C 13.363 20.406 13.472 20.586 13.561 20.586 C 13.87 20.586 14.473 19.957 14.771 19.326 C 15.279 18.248 15.412 17.469 15.412 15.564 C 15.412 14.067 15.377 13.732 15.192 13.453 C 15.072 13.271 14.923 13.122 14.861 13.122 Z M 15.546 3.579 C 15.322 2.965 14.894 2.987 14.527 3.632 C 14.135 4.323 13.494 7.04 13.493 8.013 L 13.493 8.349 L 14.127 7.963 C 14.798 7.555 15.388 6.781 15.599 6.03 C 15.765 5.439 15.736 4.099 15.546 3.579 Z" fill="rgb(7, 16, 12)" height="22.14174402565034px" id="wi67Q347S" transform="translate(59.427 0.314)" width="19.65364956107738px"/></svg>