<svg display="block" role="presentation" viewBox="0 0 113 32" xmlns="http://www.w3.org/2000/svg"><path d="M 5.819 0.111 C 3.505 1.077 0.961 3.805 0.158 7.236 C -0.861 11.579 3.375 13.413 3.721 12.815 C 4.128 12.105 2.959 11.867 2.721 9.615 C 2.414 6.703 3.766 3.449 5.473 2.021 C 5.792 1.76 5.776 2.129 5.776 2.808 C 5.776 4.032 5.708 14.986 5.708 17.273 C 5.708 20.369 5.581 21.344 5.346 22.306 C 5.116 23.285 4.743 23.945 5.024 24.202 C 5.342 24.486 6.695 23.811 7.479 22.718 C 8.417 21.409 8.748 19.836 8.809 18.129 C 8.878 16.073 8.874 12.803 8.878 10.942 C 8.878 9.231 8.905 4.228 8.851 1.216 C 8.836 0.479 6.784 -0.292 5.819 0.111 Z M 112.49 16.364 C 112.159 16.364 112.002 16.709 111.875 17.289 C 111.437 19.311 110.976 19.767 110.379 19.767 C 109.715 19.767 109.119 18.766 108.962 16.763 C 108.843 15.19 108.861 12.289 109.015 9.404 C 109.046 8.812 108.884 8.226 107.293 7.647 C 106.605 7.401 105.61 7.033 105.114 8.23 C 103.711 11.603 103.166 14.288 103.034 15.374 C 103.031 15.431 102.962 15.439 102.95 15.309 C 102.87 14.438 102.685 12.853 102.662 9.522 C 102.654 8.878 102.52 8.321 101.797 7.869 C 101.332 7.578 99.918 7.056 99.406 7.673 C 98.968 8.18 98.458 9.538 97.923 11.15 C 97.493 12.462 97.193 13.352 97.193 13.352 C 97.193 13.352 97.196 9.814 97.204 8.471 C 97.204 7.965 96.858 7.796 96.755 7.765 C 96.282 7.627 95.347 7.401 94.956 7.401 C 94.468 7.401 94.352 7.673 94.352 8.069 C 94.352 8.118 94.272 12.722 94.272 15.942 L 94.272 16.394 C 94.006 17.876 93.131 19.886 92.181 19.886 C 91.232 19.886 90.782 19.046 90.782 15.209 C 90.782 12.972 90.851 11.998 90.882 10.378 C 90.901 9.446 90.939 8.729 90.936 8.564 C 90.928 8.069 90.063 7.815 89.663 7.723 C 89.26 7.627 88.91 7.596 88.634 7.608 C 88.249 7.631 87.976 7.884 87.976 8.238 L 87.976 8.774 C 87.481 7.992 86.677 7.447 86.139 7.29 C 84.702 6.864 83.198 7.243 82.065 8.824 C 81.166 10.083 80.623 11.506 80.412 13.551 C 80.254 15.048 80.305 16.564 80.585 17.845 C 80.247 19.291 79.624 19.886 78.944 19.886 C 77.952 19.886 77.238 18.274 77.319 15.485 C 77.377 13.651 77.741 12.366 78.144 10.501 C 78.318 9.707 78.175 9.293 77.826 8.89 C 77.507 8.529 76.823 8.341 75.843 8.567 C 75.147 8.732 74.144 8.908 73.233 9.043 C 73.233 9.043 73.286 8.824 73.333 8.437 C 73.567 6.407 71.357 6.572 70.654 7.221 C 70.231 7.608 69.943 8.065 69.835 8.886 C 69.663 10.19 70.727 10.804 70.727 10.804 C 70.378 12.4 69.524 14.487 68.636 15.995 C 68.163 16.805 67.802 17.4 67.333 18.037 C 67.329 17.803 67.329 17.564 67.329 17.331 C 67.321 13.973 67.363 11.33 67.383 10.378 C 67.402 9.446 67.441 8.747 67.441 8.582 C 67.433 8.221 67.222 8.08 66.775 7.911 C 66.384 7.758 65.919 7.647 65.438 7.608 C 64.835 7.562 64.466 7.884 64.477 8.264 L 64.477 8.774 C 63.978 7.992 63.174 7.447 62.644 7.29 C 61.202 6.864 59.7 7.243 58.566 8.824 C 57.671 10.083 57.079 11.844 56.909 13.532 C 56.756 15.113 56.783 16.448 56.998 17.577 C 56.767 18.704 56.11 19.886 55.365 19.886 C 54.415 19.886 53.873 19.046 53.873 15.209 C 53.873 12.972 53.942 11.998 53.977 10.378 C 53.996 9.446 54.031 8.729 54.027 8.564 C 54.023 8.069 53.159 7.815 52.755 7.723 C 52.336 7.624 51.971 7.593 51.694 7.608 C 51.325 7.638 51.067 7.965 51.067 8.214 L 51.067 8.774 C 50.568 7.992 49.764 7.447 49.23 7.29 C 47.793 6.864 46.302 7.252 45.16 8.824 C 44.415 9.849 43.811 10.988 43.5 13.513 C 43.416 14.242 43.373 14.925 43.377 15.562 C 43.081 17.372 41.77 19.46 40.702 19.46 C 40.072 19.46 39.472 18.247 39.472 15.658 C 39.472 12.212 39.687 7.301 39.725 6.825 C 39.725 6.825 41.078 6.802 41.344 6.799 C 42.016 6.795 42.631 6.81 43.527 6.764 C 43.981 6.741 44.415 5.126 43.946 4.922 C 43.738 4.834 42.247 4.753 41.655 4.742 C 41.156 4.73 39.775 4.627 39.775 4.627 C 39.775 4.627 39.899 1.369 39.926 1.028 C 39.949 0.736 39.58 0.591 39.365 0.502 C 38.845 0.28 38.38 0.176 37.834 0.065 C 37.07 -0.092 36.728 0.061 36.663 0.701 C 36.562 1.673 36.509 4.52 36.509 4.52 C 35.948 4.52 34.045 4.408 33.487 4.408 C 32.969 4.408 32.407 6.634 33.126 6.66 C 33.953 6.691 35.386 6.722 36.339 6.748 C 36.339 6.748 36.297 11.741 36.297 13.279 L 36.297 13.755 C 35.771 16.482 33.93 17.956 33.93 17.956 C 34.325 16.149 33.518 14.794 32.058 13.651 C 31.52 13.225 30.459 12.423 29.271 11.552 C 29.271 11.552 29.959 10.873 30.57 9.515 C 31.001 8.552 31.021 7.443 29.959 7.201 C 28.207 6.799 26.765 8.084 26.331 9.457 C 26.001 10.516 26.174 11.307 26.83 12.124 L 26.98 12.308 C 26.589 13.068 26.043 14.092 25.585 14.886 C 24.306 17.093 23.341 18.835 22.614 18.835 C 22.03 18.835 22.038 17.066 22.038 15.408 C 22.038 13.981 22.145 11.829 22.23 9.604 C 22.257 8.87 21.888 8.448 21.27 8.069 C 20.893 7.838 20.093 7.386 19.628 7.386 C 18.937 7.386 16.93 7.478 15.036 12.945 C 14.797 13.636 14.328 14.89 14.328 14.89 L 14.37 8.314 C 14.37 8.16 14.29 8.015 14.102 7.911 C 13.782 7.738 12.926 7.386 12.172 7.386 C 11.807 7.386 11.626 7.555 11.626 7.888 L 11.565 18.171 C 11.565 18.954 11.584 19.867 11.661 20.266 C 11.737 20.665 11.864 20.991 12.018 21.186 C 12.172 21.375 12.352 21.52 12.645 21.586 C 12.917 21.643 14.42 21.831 14.497 21.26 C 14.593 20.572 14.597 19.833 15.385 17.059 C 16.615 12.746 18.214 10.643 18.968 9.895 C 19.102 9.764 19.252 9.756 19.244 9.972 C 19.209 10.919 19.098 13.279 19.021 15.286 C 18.818 20.661 19.793 21.655 21.197 21.655 C 22.265 21.655 23.772 20.592 25.39 17.907 C 26.401 16.229 27.377 14.591 28.084 13.406 C 28.568 13.858 29.121 14.346 29.671 14.868 C 30.951 16.076 31.37 17.227 31.09 18.317 C 30.878 19.153 30.075 20.012 28.649 19.177 C 28.234 18.934 28.057 18.747 27.638 18.47 C 27.415 18.32 27.069 18.278 26.866 18.432 C 26.327 18.835 26.023 19.345 25.847 19.978 C 25.681 20.596 26.3 20.918 26.942 21.202 C 27.492 21.451 28.676 21.67 29.433 21.697 C 32.38 21.797 34.741 20.277 36.382 16.364 C 36.678 19.744 37.927 21.659 40.098 21.659 C 41.555 21.659 43.012 19.782 43.65 17.937 C 43.83 18.689 44.103 19.341 44.453 19.898 C 46.129 22.545 49.38 21.977 51.01 19.729 C 51.517 19.03 51.594 18.781 51.594 18.781 C 51.832 20.903 53.547 21.65 54.527 21.65 C 55.63 21.65 56.76 21.129 57.555 19.341 C 57.651 19.537 57.751 19.721 57.867 19.898 C 59.539 22.545 62.79 21.977 64.424 19.729 C 64.497 19.617 64.566 19.525 64.623 19.437 L 64.673 20.833 C 64.673 20.833 63.739 21.685 63.167 22.211 C 60.65 24.517 58.735 26.267 58.593 28.3 C 58.416 30.898 60.523 31.861 62.121 31.987 C 63.813 32.122 65.266 31.189 66.156 29.877 C 66.941 28.726 67.456 26.251 67.418 23.803 C 67.403 22.821 67.379 21.578 67.356 20.239 C 68.244 19.219 69.243 17.921 70.158 16.403 C 71.161 14.752 72.229 12.53 72.775 10.8 C 72.775 10.8 73.709 10.808 74.701 10.747 C 75.02 10.727 75.112 10.793 75.05 11.023 C 74.981 11.303 73.798 15.865 74.878 18.904 C 75.62 20.983 77.283 21.655 78.275 21.655 C 79.432 21.655 80.539 20.78 81.131 19.483 C 81.204 19.625 81.277 19.767 81.362 19.898 C 83.034 22.545 86.273 21.973 87.918 19.729 C 88.292 19.219 88.499 18.781 88.499 18.781 C 88.853 20.98 90.567 21.659 91.547 21.659 C 92.573 21.659 93.541 21.241 94.329 19.383 C 94.36 20.201 94.41 20.868 94.495 21.079 C 94.544 21.21 94.837 21.371 95.044 21.451 C 95.982 21.797 96.935 21.632 97.285 21.559 C 97.531 21.509 97.723 21.317 97.746 20.811 C 97.815 19.483 97.773 17.254 98.177 15.593 C 98.857 12.815 99.487 11.737 99.786 11.203 C 99.953 10.903 100.144 10.854 100.148 11.169 C 100.16 11.809 100.195 13.69 100.459 16.222 C 100.648 18.079 100.906 19.18 101.105 19.529 C 101.666 20.523 102.366 20.569 102.931 20.569 C 103.292 20.569 104.046 20.469 103.98 19.836 C 103.946 19.529 104.003 17.622 104.668 14.883 C 105.106 13.091 105.833 11.476 106.094 10.885 C 106.194 10.666 106.236 10.835 106.236 10.869 C 106.179 12.101 106.056 16.133 106.555 18.336 C 107.24 21.325 109.211 21.659 109.899 21.659 C 111.363 21.659 112.567 20.546 112.97 17.615 C 113.07 16.908 112.924 16.364 112.49 16.364 Z M 51.036 14.553 C 50.956 16.103 50.652 17.4 50.168 18.34 C 49.284 20.047 47.544 20.585 46.778 18.125 C 46.221 16.349 46.409 13.924 46.644 12.615 C 46.982 10.673 47.839 9.3 49.176 9.426 C 50.545 9.561 51.213 11.322 51.036 14.553 Z M 64.446 14.576 C 64.37 16.037 63.989 17.511 63.574 18.34 C 62.717 20.059 60.926 20.596 60.184 18.125 C 59.677 16.433 59.796 14.25 60.049 12.876 C 60.377 11.088 61.164 9.426 62.583 9.426 C 63.963 9.426 64.643 10.938 64.446 14.576 Z M 64.796 24.567 C 64.777 27.241 64.358 29.582 63.458 30.265 C 62.175 31.232 60.449 30.502 60.807 28.554 C 61.122 26.827 62.617 25.066 64.8 22.913 C 64.8 22.913 64.808 23.404 64.796 24.567 Z M 87.949 14.591 C 87.872 16.199 87.515 17.454 87.073 18.34 C 86.216 20.059 84.44 20.592 83.683 18.125 C 83.272 16.778 83.252 14.529 83.548 12.654 C 83.848 10.742 84.69 9.3 86.081 9.426 C 87.457 9.557 88.099 11.322 87.949 14.591 Z" fill="rgb(7, 16, 12)" height="31.999982526214612px" id="RYkijXI1F" transform="translate(0 0)" width="113.00014414551603px"/></svg>