<svg display="block" role="presentation" viewBox="0 0 128 20" xmlns="http://www.w3.org/2000/svg"><path d="M 91.442 19.234 L 97.974 4.708 L 94.77 4.708 L 91.008 12.957 L 87.228 4.708 L 84.027 4.708 L 90.573 19.242 Z M 102.603 4.667 L 99.669 4.667 L 99.669 19.234 L 102.603 19.234 Z M 105.366 4.708 L 105.366 19.216 L 106.541 19.216 L 106.541 19.242 L 109.454 19.242 C 111.37 19.233 113.205 18.465 114.559 17.106 C 115.232 16.458 115.76 15.675 116.109 14.808 C 116.492 13.914 116.689 12.952 116.689 11.979 C 116.689 11.006 116.492 10.044 116.109 9.149 C 115.755 8.277 115.228 7.487 114.559 6.825 C 113.891 6.15 113.096 5.615 112.219 5.252 C 111.342 4.889 110.402 4.705 109.454 4.712 Z M 108.256 16.34 L 108.256 7.61 L 109.454 7.61 C 110.608 7.61 111.715 8.07 112.531 8.888 C 113.347 9.707 113.805 10.817 113.805 11.975 C 113.805 13.132 113.347 14.242 112.531 15.061 C 111.715 15.879 110.608 16.339 109.454 16.339 Z M 122.641 13.107 L 122.705 13.13 C 124.213 13.648 125.104 14.372 125.104 15.161 C 125.073 15.562 124.892 15.937 124.597 16.21 C 124.302 16.483 123.915 16.634 123.513 16.633 C 122.786 16.66 122.063 16.527 121.392 16.245 C 120.721 15.962 120.12 15.537 119.63 14.998 L 117.523 16.987 C 118.464 18.005 119.652 18.762 120.97 19.184 C 121.796 19.429 122.654 19.548 123.516 19.536 C 124.682 19.534 125.801 19.077 126.638 18.263 C 127.475 17.448 127.963 16.339 128 15.17 C 127.991 14.114 127.586 13.099 126.866 12.328 C 125.972 11.432 124.873 10.77 123.665 10.399 C 123.541 10.357 123.416 10.315 123.25 10.275 C 121.923 9.942 121.408 9.526 121.39 8.784 C 121.368 8.636 121.379 8.484 121.422 8.34 C 121.465 8.196 121.539 8.064 121.639 7.952 C 121.997 7.638 122.446 7.449 122.919 7.411 C 123.936 7.415 124.922 7.767 125.712 8.41 L 126.225 8.743 L 127.733 6.276 L 127.257 5.965 C 126.006 5.02 124.481 4.511 122.915 4.515 C 121.653 4.551 120.451 5.06 119.546 5.942 C 119.174 6.335 118.888 6.802 118.706 7.312 C 118.524 7.822 118.451 8.365 118.49 8.905 C 118.508 9.562 118.687 10.205 119.01 10.776 C 119.334 11.348 119.793 11.831 120.347 12.183 C 121.02 12.61 121.76 12.92 122.537 13.098 Z M 79.269 4.705 L 76.316 10.175 L 73.34 4.705 L 70.139 4.705 L 74.868 13.908 L 74.868 19.233 L 77.758 19.233 L 77.758 13.908 L 82.474 4.705 Z M 64.764 4.705 L 64.764 12.83 L 56.768 4.705 L 55.855 4.705 L 55.855 19.235 L 58.749 19.235 L 58.749 10.756 L 66.887 19.234 L 67.651 19.234 L 67.651 4.704 Z M 46.518 4.705 L 39.14 19.227 L 42.386 19.227 L 43.748 16.531 L 49.741 16.531 L 51.003 19.23 L 54.204 19.23 L 47.364 4.701 Z M 46.867 10.404 L 48.375 13.641 L 45.235 13.641 Z M 35.85 4.701 L 29.816 10.209 L 23.766 4.697 L 22.771 4.697 L 22.771 19.227 L 25.664 19.227 L 25.664 10.336 L 29.813 14.128 L 33.968 10.336 L 33.968 19.227 L 36.862 19.227 L 36.862 4.697 L 35.85 4.697 Z M 8.82 15.946 C 8.812 15.885 8.801 15.825 8.786 15.765 C 8.587 15.007 8.4 14.248 8.183 13.497 C 8.142 13.401 8.133 13.293 8.16 13.191 C 8.186 13.089 8.246 12.998 8.329 12.934 C 8.494 12.769 8.601 12.554 8.634 12.323 C 8.667 12.091 8.625 11.855 8.513 11.65 C 8.411 11.45 8.254 11.283 8.061 11.17 C 7.868 11.056 7.647 11 7.423 11.008 C 7.195 11.02 6.975 11.101 6.792 11.24 C 6.61 11.379 6.474 11.57 6.401 11.788 C 6.315 12.006 6.302 12.247 6.365 12.473 C 6.427 12.699 6.56 12.899 6.746 13.042 C 6.801 13.082 6.841 13.141 6.859 13.207 C 6.877 13.274 6.871 13.344 6.843 13.407 C 6.629 14.169 6.434 14.935 6.233 15.701 C 6.217 15.78 6.206 15.861 6.199 15.941 L 8.819 15.941 M 7.491 9.368 C 7.789 8.67 8.258 8.059 8.854 7.592 C 9.537 7.089 10.374 6.843 11.22 6.896 C 12.066 6.95 12.866 7.3 13.481 7.885 C 14.218 8.593 14.71 9.518 14.888 10.526 C 15.065 11.534 14.917 12.572 14.466 13.49 C 13.887 14.612 13.122 15.628 12.205 16.494 C 10.83 17.826 9.3 18.989 7.649 19.956 C 7.605 19.98 7.556 19.995 7.506 19.999 C 7.455 20.003 7.404 19.996 7.357 19.978 C 5.386 18.839 3.597 17.41 2.047 15.739 C 1.177 14.837 0.529 13.742 0.156 12.544 C -0.07 11.684 -0.05 10.778 0.214 9.929 C 0.478 9.08 0.976 8.323 1.65 7.746 C 2.053 7.397 2.529 7.143 3.042 7.001 C 3.555 6.86 4.094 6.835 4.618 6.928 C 5.142 7.021 5.639 7.23 6.073 7.54 C 6.507 7.849 6.866 8.252 7.126 8.718 C 7.249 8.917 7.358 9.128 7.489 9.368 M 4.566 2.302 C 4.898 2.617 5.221 2.952 5.573 3.244 C 5.865 3.488 6.019 3.462 6.214 3.139 C 6.487 2.685 6.726 2.215 6.96 1.738 C 6.99 1.674 6.931 1.535 6.871 1.465 C 6.79 1.38 6.729 1.279 6.689 1.168 C 6.65 1.058 6.634 0.94 6.642 0.824 C 6.65 0.707 6.683 0.593 6.737 0.489 C 6.792 0.385 6.867 0.294 6.959 0.221 C 7.122 0.071 7.337 -0.008 7.559 0.001 C 7.78 0.01 7.988 0.107 8.138 0.27 C 8.288 0.433 8.367 0.65 8.358 0.872 C 8.349 1.093 8.252 1.303 8.09 1.453 C 8.062 1.473 8.038 1.498 8.019 1.527 C 8.001 1.556 7.989 1.589 7.983 1.623 C 7.978 1.657 7.979 1.691 7.987 1.725 C 7.995 1.758 8.01 1.79 8.03 1.817 C 8.279 2.26 8.505 2.722 8.771 3.158 C 8.954 3.458 9.078 3.466 9.37 3.263 C 9.503 3.172 9.627 3.069 9.741 2.955 C 9.961 2.734 10.171 2.505 10.384 2.283 C 9.976 1.723 10.053 1.153 10.55 0.886 C 10.744 0.783 10.971 0.761 11.181 0.824 C 11.391 0.887 11.568 1.031 11.674 1.224 C 11.728 1.321 11.762 1.429 11.774 1.539 C 11.786 1.65 11.775 1.762 11.742 1.869 C 11.709 1.975 11.655 2.074 11.583 2.159 C 11.51 2.243 11.422 2.312 11.322 2.362 C 11.237 2.395 11.162 2.451 11.106 2.522 C 11.049 2.594 11.013 2.68 11 2.771 C 10.809 3.559 10.599 4.341 10.405 5.129 C 10.391 5.232 10.336 5.326 10.254 5.391 C 10.172 5.455 10.068 5.485 9.964 5.474 C 8.305 5.47 6.647 5.47 4.992 5.474 C 4.889 5.486 4.785 5.457 4.702 5.393 C 4.62 5.329 4.565 5.236 4.551 5.132 C 4.349 4.328 4.132 3.525 3.937 2.719 C 3.926 2.642 3.895 2.569 3.846 2.509 C 3.797 2.449 3.733 2.403 3.66 2.377 C 3.486 2.298 3.344 2.161 3.259 1.989 C 3.173 1.818 3.15 1.622 3.192 1.435 C 3.234 1.269 3.324 1.119 3.452 1.005 C 3.579 0.891 3.738 0.819 3.907 0.796 C 4.096 0.768 4.289 0.808 4.452 0.908 C 4.615 1.009 4.738 1.163 4.798 1.345 C 4.914 1.645 4.851 1.904 4.563 2.295" fill="rgb(7, 16, 12)" height="20.00000444606586px" id="uSgT87S9f" transform="translate(0 0)" width="128.00000262451172px"/></svg>