<svg display="block" role="presentation" viewBox="0 0 137 24" xmlns="http://www.w3.org/2000/svg"><path d="M 3.62 0 C 3.759 0 3.894 0.048 4.003 0.135 C 4.112 0.222 4.187 0.344 4.217 0.48 L 6.441 10.538 L 8.874 0.469 C 8.906 0.335 8.982 0.216 9.09 0.131 C 9.198 0.046 9.332 0 9.469 0 L 12.976 0 L 8.84 13.038 C 7.787 16.426 5.519 18.066 2.091 18.41 C 1.936 18.424 1.782 18.378 1.66 18.281 C 1.538 18.185 1.457 18.045 1.435 17.891 L 1.105 15.734 C 3.303 15.444 4.497 14.924 5.289 13.014 L 4.874 13.014 C 4.613 13.013 4.358 12.928 4.148 12.772 C 3.938 12.615 3.783 12.396 3.707 12.146 L 0 0 Z" fill="rgb(7, 16, 12)" height="18.412471248166483px" id="KnRO0KEQ0" transform="translate(73.141 5.588)" width="12.9756px"/><path d="M 27.361 0 C 26.595 3.378 23.956 5.959 19.375 6.847 C 21.691 7.514 24.426 6.847 24.426 6.847 C 23.632 10.316 21.116 12.488 17.487 12.753 C 16.725 14.52 15.424 16.002 13.771 16.984 C 12.118 17.967 10.197 18.402 8.283 18.226 C 6.369 18.049 4.559 17.272 3.112 16.004 C 1.666 14.736 0.656 13.042 0.228 11.165 C -0.199 9.288 -0.023 7.324 0.73 5.553 C 1.484 3.782 2.778 2.295 4.426 1.305 C 6.074 0.314 7.993 -0.129 9.908 0.038 C 11.823 0.205 13.637 0.974 15.09 2.235 C 16.74 0.226 18.85 0 22.783 0 Z M 13.995 3.929 C 13.172 3.911 12.372 4.195 11.743 4.727 C 11.114 5.258 10.699 6 10.578 6.815 C 10.165 6.553 9.69 6.407 9.201 6.393 C 8.712 6.378 8.229 6.495 7.801 6.731 C 7.373 6.968 7.015 7.315 6.768 7.737 C 6.52 8.159 6.39 8.641 6.392 9.131 C 6.39 9.785 6.624 10.418 7.05 10.915 C 7.476 11.412 8.065 11.739 8.712 11.837 C 9.358 11.935 10.018 11.797 10.571 11.448 C 11.125 11.1 11.535 10.564 11.727 9.939 C 12.401 7.756 12.957 5.959 14.005 3.929 Z" fill="rgb(7, 16, 12)" height="18.26388256368579px" id="ezkUYNM08" transform="translate(0 0.979)" width="27.361299827258044px"/><path d="M 7.635 0 C 12.837 0 15.294 3.677 15.293 8.902 C 15.293 14.097 12.731 17.822 7.635 17.822 C 2.502 17.822 0 14.092 0 8.898 C 0 3.764 2.54 0 7.635 0 Z M 7.635 2.941 C 4.689 2.941 4.207 5.95 4.207 8.896 C 4.207 11.821 4.717 14.875 7.635 14.875 L 7.635 14.878 C 10.61 14.878 11.086 11.885 11.086 8.898 C 11.086 5.93 10.58 2.942 7.635 2.941 Z" fill="rgb(7, 16, 12)" height="17.82228px" id="v0ynxKDbL" transform="translate(36.588 1.199)" width="15.293000686107003px"/><path d="M 3.867 15.146 C 3.866 15.685 4.087 15.954 4.528 15.954 C 4.598 15.953 4.668 15.945 4.737 15.933 C 4.858 15.913 4.981 15.939 5.083 16.005 C 5.186 16.071 5.259 16.174 5.29 16.292 L 5.924 18.583 C 5.178 18.885 4.379 19.034 3.574 19.021 C 1.386 19.021 0 17.757 0 15.296 L 0 0.968 C 0 0.817 0.056 0.671 0.157 0.559 C 0.258 0.446 0.397 0.375 0.547 0.358 L 3.867 0 Z" fill="rgb(7, 16, 12)" height="19.022214128612216px" id="VFe1eEpmM" transform="translate(67.775 0)" width="5.923900000000003px"/><path d="M 5.945 0 C 7.66 0 9.377 0.497 10.717 1.593 L 9.614 3.287 C 9.534 3.414 9.409 3.506 9.264 3.546 C 9.12 3.586 8.965 3.569 8.832 3.501 C 7.7 2.892 6.559 2.663 5.408 2.813 C 4.906 2.879 4.502 3.316 4.528 3.821 C 4.556 4.379 4.913 4.591 5.456 4.827 C 7.759 5.831 11.206 5.954 11.208 9.562 C 11.207 12.469 8.369 13.85 5.433 13.85 C 3.479 13.85 1.443 13.249 0 11.909 L 1.516 10.213 C 1.611 10.104 1.742 10.032 1.884 10.012 C 2.027 9.991 2.173 10.023 2.295 10.101 C 3.529 10.929 4.833 11.23 6.209 11.004 C 6.493 10.955 6.751 10.806 6.936 10.584 C 7.121 10.362 7.22 10.08 7.216 9.791 C 7.199 9.14 6.9 8.877 6.263 8.613 C 4.628 7.938 0.634 7.549 0.634 3.97 C 0.634 1.354 3.221 0 5.945 0 Z" fill="rgb(7, 16, 12)" height="13.84962px" id="DyN1mf74y" transform="translate(125.68 5.172)" width="11.207999999999998px"/><path d="M 5.408 0 C 6.73 0 7.493 0.506 8.309 1.519 L 8.333 1.4 C 8.389 1.123 8.539 0.873 8.758 0.693 C 8.976 0.514 9.25 0.416 9.533 0.416 L 11.883 0.416 L 11.883 9.067 C 11.883 10.066 12.063 10.614 12.931 11.053 L 12.388 12.4 C 12.3 12.618 12.168 12.816 12.001 12.98 C 11.834 13.145 11.635 13.275 11.417 13.359 C 11.198 13.444 10.964 13.483 10.729 13.474 C 10.495 13.464 10.265 13.407 10.054 13.306 C 9.409 12.992 8.865 12.54 8.506 11.861 C 7.654 13.029 6.597 13.846 5.016 13.846 C 1.354 13.846 0 10.563 0 6.886 C 0 3.196 1.843 0 5.408 0 Z M 6.265 2.823 C 4.4 2.823 4.013 5.045 4.013 6.913 C 4.013 8.781 4.233 11.004 6.094 11.004 C 6.859 11.004 7.291 10.645 7.788 9.928 C 7.933 9.72 8.012 9.473 8.016 9.22 L 8.016 4.37 C 8.016 4.059 7.897 3.76 7.684 3.533 C 7.173 2.993 6.839 2.823 6.265 2.823 Z" fill="rgb(7, 16, 12)" height="13.845720000000002px" id="EnT00QJHS" transform="translate(98.336 5.172)" width="12.9311px"/><path d="M 7.61 0 C 9.788 0 11.207 1.348 11.209 3.921 L 11.209 13.43 L 7.955 13.43 C 7.793 13.43 7.636 13.365 7.522 13.25 C 7.407 13.135 7.343 12.979 7.343 12.816 L 7.343 4.582 C 7.343 3.576 7.131 2.843 6.119 2.843 C 5.411 2.842 4.731 3.301 4.077 4.22 C 3.937 4.422 3.863 4.664 3.866 4.91 L 3.866 13.43 L 0.612 13.43 C 0.532 13.43 0.452 13.414 0.378 13.383 C 0.304 13.352 0.237 13.307 0.18 13.25 C 0.123 13.193 0.078 13.125 0.047 13.051 C 0.016 12.976 0 12.897 0 12.816 L 0 0.418 L 2.349 0.418 C 2.637 0.418 2.915 0.519 3.136 0.705 C 3.356 0.891 3.504 1.148 3.554 1.432 L 3.647 1.96 C 4.712 0.704 5.953 0 7.61 0 Z" fill="rgb(7, 16, 12)" height="13.429720457373767px" id="S2AXoaTeZ" transform="translate(54.023 5.172)" width="11.209000457373762px"/><path d="M 10.107 0 L 9.811 2.081 C 9.779 2.299 9.669 2.499 9.503 2.644 C 9.336 2.788 9.123 2.867 8.902 2.867 L 4.016 2.867 L 4.016 7.38 L 8.864 7.38 L 8.645 9.425 C 8.621 9.65 8.514 9.858 8.346 10.01 C 8.177 10.161 7.959 10.245 7.732 10.245 L 4.013 10.245 L 4.013 16.37 C 4.013 16.533 3.949 16.689 3.834 16.804 C 3.719 16.919 3.564 16.983 3.401 16.983 L 0 16.983 L 0 0.612 C 0 0.45 0.065 0.295 0.18 0.18 C 0.294 0.065 0.45 0 0.612 0 Z" fill="rgb(7, 16, 12)" height="16.98344px" id="Jh6KRLLHC" transform="translate(87.747 1.618)" width="10.107399999999998px"/><path d="M 5.445 0.523 C 7.771 -0.653 11.208 0.018 11.209 3.953 L 11.209 13.462 L 7.955 13.462 C 7.793 13.462 7.637 13.397 7.522 13.282 C 7.407 13.167 7.343 13.011 7.343 12.849 L 7.343 4.614 C 7.343 3.609 7.131 2.875 6.119 2.875 C 5.412 2.875 4.73 3.333 4.077 4.252 C 3.937 4.455 3.864 4.696 3.867 4.942 L 3.867 13.462 L 0.612 13.462 C 0.449 13.462 0.294 13.397 0.179 13.282 C 0.064 13.167 0 13.011 0 12.849 L 0 0.448 L 2.348 0.448 C 2.636 0.448 2.916 0.55 3.136 0.735 C 3.357 0.921 3.504 1.179 3.554 1.463 L 3.646 1.992 C 4.201 1.339 4.801 0.85 5.445 0.523 Z" fill="rgb(7, 16, 12)" height="13.462084351830317px" id="owxm0eVAh" transform="translate(113.108 5.14)" width="11.208999999999989px"/></svg>