<svg display="block" role="presentation" viewBox="0 0 108 24" xmlns="http://www.w3.org/2000/svg"><path d="M 17.222 0 C 17.222 0 27.992 0 30.679 0.717 C 32.161 1.111 33.328 2.273 33.724 3.748 C 34.443 6.422 34.443 12 34.443 12 C 34.443 12.024 34.442 17.584 33.724 20.252 C 33.328 21.727 32.161 22.889 30.679 23.283 C 27.992 24 17.222 24 17.222 24 C 17.169 24 6.444 23.998 3.765 23.283 C 2.283 22.889 1.116 21.727 0.72 20.252 C 0.002 17.584 0 12.024 0 12 C 0 12 0 6.422 0.72 3.748 C 1.116 2.273 2.283 1.111 3.765 0.717 C 6.444 0.002 17.169 0 17.222 0 Z M 13.777 17.143 L 22.727 12 L 13.777 6.857 Z" fill="rgb(7, 16, 12)" height="24px" id="GblbROmVi" width="34.4434px"/><path d="M 4.778 0 C 5.895 0 6.79 0.229 7.463 0.687 C 8.136 1.144 8.629 1.86 8.941 2.832 C 9.253 3.805 9.409 5.1 9.409 6.718 L 9.409 8.9 C 9.409 10.502 9.257 11.789 8.953 12.762 C 8.649 13.734 8.157 14.445 7.476 14.895 C 6.794 15.344 5.87 15.569 4.704 15.569 C 3.506 15.569 2.566 15.34 1.885 14.883 C 1.203 14.426 0.718 13.714 0.431 12.749 C 0.143 11.785 0 10.502 0 8.9 L 0 6.718 C 0 5.1 0.164 3.8 0.492 2.819 C 0.821 1.839 1.334 1.123 2.032 0.674 C 2.73 0.225 3.645 0 4.778 0 Z M 4.704 2.329 C 4.244 2.329 3.92 2.579 3.731 3.077 C 3.543 3.576 3.448 4.365 3.448 5.443 L 3.448 10.126 C 3.448 11.237 3.539 12.038 3.72 12.528 C 3.9 13.019 4.228 13.264 4.704 13.264 C 5.18 13.264 5.513 13.019 5.702 12.528 C 5.891 12.038 5.985 11.237 5.985 10.126 L 5.985 5.443 C 5.985 4.365 5.891 3.576 5.702 3.077 C 5.513 2.579 5.18 2.329 4.704 2.329 Z" fill="rgb(7, 16, 12)" height="15.569329999999997px" id="ZvH9NbBnG" transform="translate(48.111 6.951)" width="9.409199999999998px"/><path d="M 3.399 11.033 C 3.399 11.704 3.473 12.182 3.621 12.468 C 3.769 12.754 4.015 12.896 4.359 12.896 C 4.655 12.896 4.938 12.807 5.209 12.627 C 5.48 12.447 5.682 12.218 5.813 11.94 L 5.813 0 L 9.212 0 L 9.212 15.03 L 6.552 15.03 L 6.256 13.191 L 6.183 13.191 C 5.46 14.581 4.375 15.275 2.931 15.275 C 1.929 15.275 1.19 14.948 0.714 14.294 C 0.238 13.64 0 12.619 0 11.229 L 0 0 L 3.399 0 Z" fill="rgb(7, 16, 12)" height="15.275379999999998px" id="owEvzXH_R" transform="translate(59.283 7.245)" width="9.211899999999993px"/><path d="M 3.399 11.033 C 3.399 11.704 3.473 12.182 3.621 12.468 C 3.769 12.754 4.015 12.896 4.359 12.896 C 4.655 12.896 4.938 12.807 5.209 12.627 C 5.48 12.447 5.682 12.218 5.813 11.94 L 5.813 0 L 9.212 0 L 9.212 15.03 L 6.552 15.03 L 6.256 13.191 L 6.183 13.191 C 5.459 14.58 4.375 15.275 2.931 15.275 C 1.929 15.275 1.19 14.948 0.714 14.294 C 0.238 13.64 0 12.619 0 11.229 L 0 0 L 3.399 0 Z" fill="rgb(7, 16, 12)" height="15.275379999999998px" id="VT09CJ1Xa" transform="translate(76.719 7.245)" width="9.2119px"/><path d="M 4.631 0 C 5.797 0 6.692 0.213 7.316 0.638 C 7.939 1.063 8.379 1.725 8.633 2.624 C 8.888 3.523 9.015 4.765 9.015 6.351 L 9.015 8.925 L 3.326 8.925 L 3.326 9.686 C 3.326 10.65 3.354 11.374 3.411 11.855 C 3.469 12.337 3.588 12.689 3.769 12.909 C 3.949 13.13 4.228 13.24 4.606 13.24 C 5.114 13.24 5.464 13.044 5.653 12.652 C 5.841 12.26 5.944 11.606 5.96 10.69 L 8.892 10.862 C 8.908 10.993 8.916 11.173 8.916 11.401 C 8.916 12.791 8.535 13.829 7.771 14.516 C 7.008 15.202 5.928 15.545 4.533 15.545 C 2.858 15.545 1.683 15.022 1.01 13.976 C 0.336 12.93 0 11.311 0 9.121 L 0 6.498 C 0 4.242 0.349 2.596 1.047 1.558 C 1.745 0.52 2.94 0 4.631 0 Z M 4.557 2.28 C 4.195 2.28 3.929 2.387 3.756 2.6 C 3.584 2.812 3.469 3.16 3.411 3.642 C 3.354 4.124 3.326 4.855 3.326 5.836 L 3.326 6.914 L 5.813 6.914 L 5.813 5.836 C 5.813 4.872 5.78 4.14 5.714 3.642 C 5.648 3.143 5.53 2.791 5.358 2.587 C 5.185 2.383 4.918 2.28 4.557 2.28 Z" fill="rgb(7, 16, 12)" height="15.544889999999999px" id="dRWKYOmbX" transform="translate(98.986 6.962)" width="9.014700000000005px"/><path d="M 3.275 7.92 L 3.3 7.92 C 3.595 7.348 4.015 6.886 4.557 6.534 C 5.098 6.183 5.682 6.008 6.306 6.008 C 7.11 6.008 7.742 6.22 8.202 6.645 C 8.662 7.07 8.994 7.757 9.199 8.704 C 9.404 9.652 9.508 10.969 9.508 12.652 L 9.508 15.03 C 9.508 17.27 9.236 18.916 8.694 19.971 C 8.152 21.025 7.306 21.552 6.157 21.552 C 5.517 21.552 4.934 21.404 4.408 21.11 C 3.883 20.816 3.489 20.416 3.227 19.909 L 3.152 19.909 L 2.808 21.331 L 0 21.331 L 0 0 L 3.275 0 Z M 4.778 8.411 C 4.45 8.411 4.146 8.543 3.867 8.804 C 3.588 9.065 3.39 9.4 3.275 9.809 L 3.275 18.341 C 3.423 18.603 3.616 18.799 3.854 18.93 C 4.092 19.061 4.351 19.126 4.631 19.126 C 4.991 19.126 5.279 18.995 5.492 18.733 C 5.706 18.472 5.858 18.031 5.948 17.409 C 6.038 16.788 6.084 15.93 6.084 14.835 L 6.084 12.898 C 6.084 11.722 6.047 10.814 5.973 10.177 C 5.899 9.539 5.768 9.085 5.579 8.815 C 5.39 8.546 5.123 8.411 4.778 8.411 Z" fill="rgb(7, 16, 12)" height="21.551741px" id="Fel3KLLr5" transform="translate(87.981 0.943)" width="9.507900000000006px"/><path d="M 4.729 6.302 C 5.074 7.855 5.328 9.179 5.492 10.273 L 5.591 10.273 C 5.706 9.489 5.96 8.173 6.355 6.326 L 7.759 0 L 11.133 0 L 7.217 13.902 L 7.217 20.572 L 3.867 20.572 L 3.867 13.902 L 0 0 L 3.374 0 Z" fill="rgb(7, 16, 12)" height="20.572280000000003px" id="iUm3a764h" transform="translate(37.852 1.703)" width="11.132800000000003px"/><path d="M 10.074 2.722 L 6.699 2.722 L 6.699 20.571 L 3.374 20.571 L 3.374 2.722 L 0 2.722 L 0 0 L 10.074 0 Z" fill="rgb(7, 16, 12)" height="20.5713px" id="hAWp2DVRo" transform="translate(67.658 1.704)" width="10.074200000000005px"/></svg>